<svg width="206" height="54" viewBox="0 0 206 54" fill="none" xmlns="http://www.w3.org/2000/svg">
<path d="M0.996338 52.7186V1.74144H14.8166V8.65157C16.4944 5.93261 18.6165 3.92324 21.2028 2.63008C23.7825 1.33692 26.6076 0.693649 29.6846 0.693649C32.9673 0.693649 35.7725 1.38997 38.1134 2.78924C40.4477 4.1885 42.351 6.05198 43.8166 8.38631C45.2822 10.7273 46.3631 13.4462 47.0594 16.5498C47.7558 19.6534 48.1072 22.883 48.1072 26.2319V52.7186H33.7631V26.1325C33.7631 21.5235 33.0469 18.0353 31.6144 15.6612C30.182 13.2871 27.8278 12.1 24.5518 12.1C22.4562 12.1 20.6458 12.5907 19.1072 13.5656C17.5687 14.5404 16.3153 15.6943 15.3405 17.0207V52.7186H0.996338Z" fill="black"/>
<path d="M82.963 0.693649C86.3119 0.693649 89.2961 1.21755 91.9156 2.26534C94.5351 3.31313 96.7103 4.79861 98.461 6.71514C100.205 8.63831 101.531 10.9395 102.44 13.6253C103.349 16.3111 103.799 19.3284 103.799 22.6774C103.799 24.0767 103.713 25.4892 103.541 26.915C103.368 28.3474 103.103 29.6539 102.758 30.8409H72.5049C72.6442 34.5811 73.7981 37.5521 75.96 39.767C78.1219 41.982 81.577 43.0895 86.3252 43.0895C89.0441 43.0895 91.6968 42.8375 94.2831 42.3335C96.8628 41.8295 99.164 41.1066 101.193 40.1583L102.971 49.8935C100.457 51.1469 97.5989 52.1085 94.3892 52.7716C91.1795 53.4348 87.8637 53.7664 84.4418 53.7664C80.1843 53.7664 76.4176 53.1364 73.1349 51.883C69.8523 50.6296 67.0803 48.8457 64.8123 46.5445C62.5443 44.2434 60.8134 41.4647 59.633 38.2219C58.4459 34.979 57.8557 31.398 57.8557 27.492C57.8557 23.513 58.4327 19.8656 59.5799 16.5498C60.7338 13.234 62.3917 10.4089 64.5536 8.06799C66.7155 5.72704 69.3483 3.91661 72.4585 2.62345C75.5422 1.34355 79.0503 0.693649 82.963 0.693649ZM82.1207 10.3227C79.1896 10.3227 76.9415 11.3506 75.3698 13.4131C73.7981 15.4755 72.8763 18.0684 72.5978 21.2118H90.0787C90.4301 17.9292 89.9394 15.2964 88.6131 13.307C87.2868 11.3175 85.1249 10.3227 82.1207 10.3227Z" fill="black"/>
<path d="M145.559 13.99H143.151C139.59 13.99 136.626 14.5471 134.252 15.6678C131.878 16.7819 129.994 18.3868 128.602 20.4823V52.7252H114.257V1.74144H128.078V10.7472C129.053 7.74967 130.604 5.40872 132.733 3.73092C134.862 2.05313 137.707 1.21754 141.261 1.21754C142.866 1.21754 144.299 1.38997 145.552 1.74144V13.99H145.559Z" fill="black"/>
<path d="M172.271 1.74144L187.749 52.7186H172.669L169.452 43.5537L154.77 1.74144H172.271Z" fill="#4265ED"/>
<path d="M205.747 1.74144L195.833 29.9722L187.258 1.74144H205.747Z" fill="black"/>
</svg>
